<svg class="animated" id="freepik_stories-service-247" xmlns="http://www.w3.org/2000/svg" viewBox="0 0 500 500" version="1.1" xmlns:xlink="http://www.w3.org/1999/xlink" xmlns:svgjs="http://svgjs.com/svgjs"><style>svg#freepik_stories-service-247:not(.animated) .animable {opacity: 0;}svg#freepik_stories-service-247.animated #freepik--background-simple--inject-137 {animation: 1s 1 forwards cubic-bezier(.36,-0.01,.5,1.38) zoomIn;animation-delay: 0s;}svg#freepik_stories-service-247.animated #freepik--Plant--inject-137 {animation: 1s 1 forwards cubic-bezier(.36,-0.01,.5,1.38) slideDown;animation-delay: 0s;}svg#freepik_stories-service-247.animated #freepik--Window--inject-137 {animation: 1s 1 forwards cubic-bezier(.36,-0.01,.5,1.38) lightSpeedLeft;animation-delay: 0s;}svg#freepik_stories-service-247.animated #freepik--Clock--inject-137 {animation: 1s 1 forwards cubic-bezier(.36,-0.01,.5,1.38) fadeIn;animation-delay: 0s;}svg#freepik_stories-service-247.animated #freepik--speech-bubble--inject-137 {animation: 1s 1 forwards cubic-bezier(.36,-0.01,.5,1.38) zoomIn,1.5s Infinite  linear floating;animation-delay: 0s,1s;}svg#freepik_stories-service-247.animated #freepik--Character--inject-137 {animation: 1s 1 forwards cubic-bezier(.36,-0.01,.5,1.38) slideRight;animation-delay: 0s;}svg#freepik_stories-service-247.animated #freepik--Device--inject-137 {animation: 1s 1 forwards cubic-bezier(.36,-0.01,.5,1.38) zoomIn;animation-delay: 0s;}svg#freepik_stories-service-247.animated #freepik--Table--inject-137 {animation: 1s 1 forwards cubic-bezier(.36,-0.01,.5,1.38) slideLeft;animation-delay: 0s;}            @keyframes zoomIn {                0% {                    opacity: 0;                    transform: scale(0.5);                }                100% {                    opacity: 1;                    transform: scale(1);                }            }                    @keyframes slideDown {                0% {                    opacity: 0;                    transform: translateY(-30px);                }                100% {                    opacity: 1;                    transform: translateY(0);                }            }                    @keyframes lightSpeedLeft {              from {                transform: translate3d(-50%, 0, 0) skewX(20deg);                opacity: 0;              }              60% {                transform: skewX(-10deg);                opacity: 1;              }              80% {                transform: skewX(2deg);              }              to {                opacity: 1;                transform: translate3d(0, 0, 0);              }            }                    @keyframes fadeIn {                0% {                    opacity: 0;                }                100% {                    opacity: 1;                }            }                    @keyframes floating {                0% {                    opacity: 1;                    transform: translateY(0px);                }                50% {                    transform: translateY(-10px);                }                100% {                    opacity: 1;                    transform: translateY(0px);                }            }                    @keyframes slideRight {                0% {                    opacity: 0;                    transform: translateX(30px);                }                100% {                    opacity: 1;                    transform: translateX(0);                }            }                    @keyframes slideLeft {                0% {                    opacity: 0;                    transform: translateX(-30px);                }                100% {                    opacity: 1;                    transform: translateX(0);                }            }        </style><g id="freepik--background-simple--inject-137" class="animable" style="transform-origin: 239.105px 253.124px;"><path d="M454.58,247.44c-4.79,40.61-23.33,87.81-60.36,109.5C338.28,389.71,343,440.12,233.77,462a224,224,0,0,1-48.41,4.57,185.6,185.6,0,0,1-23.76-1.94C92.2,454.53,45.5,406.29,28.37,348.06,5.82,271.48,50.84,221.34,80.68,191.14S132.38,66.81,239.55,44.42a217.71,217.71,0,0,1,49.76-4.72c38.13.93,79.72,13.45,108.5,39.59,2.16,2,4.26,4,6.31,6.09C444.12,126.44,461.12,192.09,454.58,247.44Z" style="fill: rgb(91, 0, 0); transform-origin: 239.105px 253.124px;" id="elvq2iaqc6bcp" class="animable"></path><g id="elaq8dor864bu"><path d="M454.58,247.44c-4.79,40.61-23.33,87.81-60.36,109.5C338.28,389.71,343,440.12,233.77,462a224,224,0,0,1-48.41,4.57,185.6,185.6,0,0,1-23.76-1.94C92.2,454.53,45.5,406.29,28.37,348.06,5.82,271.48,50.84,221.34,80.68,191.14S132.38,66.81,239.55,44.42a217.71,217.71,0,0,1,49.76-4.72c38.13.93,79.72,13.45,108.5,39.59,2.16,2,4.26,4,6.31,6.09C444.12,126.44,461.12,192.09,454.58,247.44Z" style="fill: rgb(255, 255, 255); opacity: 0.7; transform-origin: 239.105px 253.124px;" class="animable"></path></g></g><g id="freepik--Plant--inject-137" class="animable" style="transform-origin: 423.004px 339.606px;"><line x1="423.01" y1="422.6" x2="423.01" y2="309.75" style="fill: none; stroke: rgb(38, 50, 56); stroke-linecap: round; stroke-linejoin: round; transform-origin: 423.01px 366.175px;" id="elkspuo5s7fy" class="animable"></line><line x1="413.86" y1="422.6" x2="413.86" y2="366.64" style="fill: none; stroke: rgb(38, 50, 56); stroke-linecap: round; stroke-linejoin: round; transform-origin: 413.86px 394.62px;" id="elti66pj0rjpl" class="animable"></line><path d="M425.87,328.25s-9.22-1.05-13-8.35-4.14-26.13,10.22-47,21.89-21.09,24.39-4.06,2.14,41.76-3.74,51.13S425.87,328.25,425.87,328.25Z" style="fill: rgb(255, 255, 255); stroke: rgb(38, 50, 56); stroke-linecap: round; stroke-linejoin: round; transform-origin: 429.794px 292.45px;" id="elvcw24kwh03h" class="animable"></path><path d="M429.14,288.94c1.7-5.8,3.73-11,6.09-14.56" style="fill: none; stroke: rgb(38, 50, 56); stroke-linecap: round; stroke-linejoin: round; transform-origin: 432.185px 281.66px;" id="elm1qrr46f0f9" class="animable"></path><path d="M422,327a268.53,268.53,0,0,1,6-34.08" style="fill: none; stroke: rgb(38, 50, 56); stroke-linecap: round; stroke-linejoin: round; transform-origin: 425px 309.96px;" id="el5y65jhm82dd" class="animable"></path><path d="M431.36,364.88s-5.92-4.59-5.44-11.19,8.08-19.75,26.69-28.09,23.92-5.38,18.52,7.4-16,29.69-24,33.69S431.36,364.88,431.36,364.88Z" style="fill: rgb(255, 255, 255); stroke: rgb(38, 50, 56); stroke-linecap: round; stroke-linejoin: round; transform-origin: 449.512px 344.501px;" id="elaqk2u6lbix" class="animable"></path><path d="M450.07,339.14c3.6-3.28,7.18-6,10.29-7.48" style="fill: none; stroke: rgb(38, 50, 56); stroke-linecap: round; stroke-linejoin: round; transform-origin: 455.215px 335.4px;" id="el971ibo55rd" class="animable"></path><path d="M447.68,341.4a216.16,216.16,0,0,0-18.42,21s-4.77,6.42-6.18,19.17" style="fill: none; stroke: rgb(38, 50, 56); stroke-linecap: round; stroke-linejoin: round; transform-origin: 435.38px 361.485px;" id="el3eyud1nvzau" class="animable"></path><path d="M428,403s-3.43-2.66-3.15-6.48,4.68-11.44,15.47-16.28,13.85-3.11,10.72,4.3-9.27,17.2-13.89,19.51S428,403,428,403Z" style="fill: rgb(255, 255, 255); stroke: rgb(38, 50, 56); stroke-linecap: round; stroke-linejoin: round; transform-origin: 438.518px 391.19px;" id="elkw3xqni2wgi" class="animable"></path><path d="M438.81,388.13a26,26,0,0,1,6-4.33" style="fill: none; stroke: rgb(38, 50, 56); stroke-linecap: round; stroke-linejoin: round; transform-origin: 441.81px 385.965px;" id="el1bc73mmlcxu" class="animable"></path><path d="M437.43,389.44a125.29,125.29,0,0,0-10.67,12.15s-2.77,3.72-3.59,11.11" style="fill: none; stroke: rgb(38, 50, 56); stroke-linecap: round; stroke-linejoin: round; transform-origin: 430.3px 401.07px;" id="eljw9x0h69yk" class="animable"></path><path d="M414.65,349.62s5.91-4.59,5.44-11.19-8.08-19.75-26.7-28.09-23.91-5.38-18.51,7.4,16,29.69,24,33.69S414.65,349.62,414.65,349.62Z" style="fill: rgb(255, 255, 255); stroke: rgb(38, 50, 56); stroke-linecap: round; stroke-linejoin: round; transform-origin: 396.496px 329.241px;" id="elxlqs00gt24" class="animable"></path><path d="M395.94,323.88a45.39,45.39,0,0,0-10.3-7.48" style="fill: none; stroke: rgb(38, 50, 56); stroke-linecap: round; stroke-linejoin: round; transform-origin: 390.79px 320.14px;" id="el4qhbukh3j0k" class="animable"></path><path d="M398.33,326.14a216.64,216.64,0,0,1,18.41,21s4.77,6.42,6.19,19.17" style="fill: none; stroke: rgb(38, 50, 56); stroke-linecap: round; stroke-linejoin: round; transform-origin: 410.63px 346.225px;" id="elnehq6dr0v2" class="animable"></path><path d="M411.74,400.59s6,.19,9-3.42,4.8-13.69-2.7-26S405.75,358,402.75,367,398,389.19,401,394.7,411.74,400.59,411.74,400.59Z" style="fill: rgb(255, 255, 255); stroke: rgb(38, 50, 56); stroke-linecap: round; stroke-linejoin: round; transform-origin: 411.389px 380.787px;" id="elqlkaqskibpl" class="animable"></path><path d="M412.68,391.41c.09,1.23.15,2.46.18,3.68" style="fill: none; stroke: rgb(38, 50, 56); stroke-linecap: round; stroke-linejoin: round; transform-origin: 412.77px 393.25px;" id="elzxtut0ebhan" class="animable"></path><path d="M408.08,366.41a140,140,0,0,1,4.34,22.13" style="fill: none; stroke: rgb(38, 50, 56); stroke-linecap: round; stroke-linejoin: round; transform-origin: 410.25px 377.475px;" id="el3gtfipiohe7" class="animable"></path></g><g id="freepik--Window--inject-137" class="animable" style="transform-origin: 195.78px 186.45px;"><polyline points="24.89 327.7 163.3 327.7 163.3 45.2" style="fill: none; stroke: rgb(38, 50, 56); stroke-linecap: round; stroke-linejoin: round; transform-origin: 94.095px 186.45px;" id="elua3p9sldyzj" class="animable"></polyline><polyline points="310.18 327.7 171.77 327.7 171.77 45.2" style="fill: none; stroke: rgb(38, 50, 56); stroke-linecap: round; stroke-linejoin: round; transform-origin: 240.975px 186.45px;" id="elarfufnqwloa" class="animable"></polyline><polyline points="228.26 327.7 366.67 327.7 366.67 45.2" style="fill: none; stroke: rgb(38, 50, 56); stroke-linecap: round; stroke-linejoin: round; transform-origin: 297.465px 186.45px;" id="elf7apzsp2mln" class="animable"></polyline><line x1="338.43" y1="111.53" x2="290.05" y2="164.99" style="fill: none; stroke: rgb(38, 50, 56); stroke-linecap: round; stroke-linejoin: round; transform-origin: 314.24px 138.26px;" id="elihx3x5sx7bg" class="animable"></line><line x1="311.59" y1="152.89" x2="298.17" y2="167.72" style="fill: none; stroke: rgb(38, 50, 56); stroke-linecap: round; stroke-linejoin: round; transform-origin: 304.88px 160.305px;" id="elo038x3ey8t" class="animable"></line><line x1="204.96" y1="97.49" x2="178.83" y2="126.36" style="fill: none; stroke: rgb(38, 50, 56); stroke-linecap: round; stroke-linejoin: round; transform-origin: 191.895px 111.925px;" id="elo89kpxd8mp9" class="animable"></line><line x1="212.02" y1="90.46" x2="229.68" y2="70.95" style="fill: none; stroke: rgb(38, 50, 56); stroke-linecap: round; stroke-linejoin: round; transform-origin: 220.85px 80.705px;" id="elfo7ald4k7p" class="animable"></line><line x1="157.65" y1="269.17" x2="140.7" y2="287.9" style="fill: none; stroke: rgb(38, 50, 56); stroke-linecap: round; stroke-linejoin: round; transform-origin: 149.175px 278.535px;" id="elus7fx0zw5" class="animable"></line><line x1="152" y1="244.2" x2="120.57" y2="278.93" style="fill: none; stroke: rgb(38, 50, 56); stroke-linecap: round; stroke-linejoin: round; transform-origin: 136.285px 261.565px;" id="el3dtq7mg4ehv" class="animable"></line></g><g id="freepik--Clock--inject-137" class="animable" style="transform-origin: 424.3px 116.3px;"><g id="ele438f3q1sfd"><circle cx="424.3" cy="116.3" r="50.1" style="fill: none; stroke: rgb(38, 50, 56); stroke-linecap: round; stroke-linejoin: round; transform-origin: 424.3px 116.3px; transform: rotate(-68.21deg);" class="animable"></circle></g><circle cx="424.3" cy="116.3" r="43.73" style="fill: none; stroke: rgb(38, 50, 56); stroke-linecap: round; stroke-linejoin: round; transform-origin: 424.3px 116.3px;" id="elt0p2sv57cpa" class="animable"></circle><circle cx="424.3" cy="116.3" r="2.99" style="fill: none; stroke: rgb(38, 50, 56); stroke-linecap: round; stroke-linejoin: round; transform-origin: 424.3px 116.3px;" id="elp95orfm90ah" class="animable"></circle><line x1="424.3" y1="119.29" x2="424.3" y2="133.98" style="fill: none; stroke: rgb(38, 50, 56); stroke-linecap: round; stroke-linejoin: round; transform-origin: 424.3px 126.635px;" id="el8ylutde5cn5" class="animable"></line><line x1="421.31" y1="116.3" x2="385.65" y2="116.3" style="fill: none; stroke: rgb(38, 50, 56); stroke-linecap: round; stroke-linejoin: round; transform-origin: 403.48px 116.3px;" id="el6uwt9jkc3ws" class="animable"></line></g><g id="freepik--speech-bubble--inject-137" class="animable animator-active" style="transform-origin: 120.618px 169.534px;"><path d="M196.77,237.22l-16.48-25.58a74.25,74.25,0,1,0-8.41,11.11Z" style="fill: rgb(38, 50, 56); stroke: rgb(38, 50, 56); stroke-linecap: round; stroke-linejoin: round; transform-origin: 119.833px 172.579px;" id="el42m0pzbph31" class="animable"></path><path d="M198.34,231l-16.49-25.58a74.19,74.19,0,1,0-8.4,11.11Z" style="fill: rgb(255, 255, 255); stroke: rgb(38, 50, 56); stroke-linecap: round; stroke-linejoin: round; transform-origin: 121.441px 166.429px;" id="elxke83iabfyn" class="animable"></path><path d="M66.64,177v-6.93L78,152.61c.86-1.29,1.67-2.55,2.44-3.76a22.23,22.23,0,0,0,1.88-3.7,10.68,10.68,0,0,0,.73-3.94,4.73,4.73,0,0,0-.82-3.05,2.75,2.75,0,0,0-2.23-1,3.37,3.37,0,0,0-2.47.88,4.59,4.59,0,0,0-1.2,2.35,15.08,15.08,0,0,0-.33,3.29V146H66.52v-2.52A19.89,19.89,0,0,1,67.87,136a11,11,0,0,1,4.29-5.23,13.9,13.9,0,0,1,7.69-1.91q6.41,0,9.66,3.32t3.26,9.25a15.29,15.29,0,0,1-.91,5.35,24.36,24.36,0,0,1-2.41,4.78c-1,1.55-2.06,3.16-3.2,4.85l-8.69,13H91.48V177Z" style="fill: rgb(38, 50, 56); stroke: rgb(38, 50, 56); stroke-linecap: round; stroke-linejoin: round; transform-origin: 79.6445px 152.923px;" id="elo7v33ni4d1" class="animable"></path><path d="M109.57,177V166.35H94.94v-7.22l12.4-29.66h11.39v29.6h4.4v7.28h-4.4V177Zm-7.17-18h7.17V139.28Z" style="fill: rgb(38, 50, 56); stroke: rgb(38, 50, 56); stroke-linecap: round; stroke-linejoin: round; transform-origin: 109.035px 153.235px;" id="el3wqrec7zhiu" class="animable"></path><path d="M126.78,177l14.56-47.57h5.17L131.89,177Z" style="fill: rgb(38, 50, 56); stroke: rgb(38, 50, 56); stroke-linecap: round; stroke-linejoin: round; transform-origin: 136.645px 153.215px;" id="elyegjcdm3c8" class="animable"></path><path d="M152.85,177l10.34-40.11h-13v-7.46h22.55v6.75L162.43,177Z" style="fill: rgb(38, 50, 56); stroke: rgb(38, 50, 56); stroke-linecap: round; stroke-linejoin: round; transform-origin: 161.465px 153.215px;" id="elik7ptz8mv1" class="animable"></path><path d="M75.88,207.48a6.18,6.18,0,0,1-3.33-.83,5.19,5.19,0,0,1-2-2.34,10.53,10.53,0,0,1-.82-3.52l2-.6a13.52,13.52,0,0,0,.55,2.75,4,4,0,0,0,1.25,1.94,3.48,3.48,0,0,0,2.34.72,3.63,3.63,0,0,0,2.55-.85,3.55,3.55,0,0,0,.91-2.71,5,5,0,0,0-.8-2.81,15.1,15.1,0,0,0-2.21-2.51L72,192.56a8,8,0,0,1-1.71-2.33,6.31,6.31,0,0,1-.54-2.63,5,5,0,0,1,1.52-3.92,5.82,5.82,0,0,1,4-1.37,7.75,7.75,0,0,1,2.35.34,4.35,4.35,0,0,1,1.8,1.08,5.25,5.25,0,0,1,1.17,1.93,12.28,12.28,0,0,1,.58,2.88l-2,.52a11.05,11.05,0,0,0-.5-2.66,3.31,3.31,0,0,0-1.19-1.68,3.72,3.72,0,0,0-2.23-.58,3.79,3.79,0,0,0-2.49.79,3,3,0,0,0-1,2.46,4.29,4.29,0,0,0,.38,1.82A6.36,6.36,0,0,0,73.6,191l4.34,4.1a15.61,15.61,0,0,1,2.53,3,6.93,6.93,0,0,1,1.06,3.77,6.13,6.13,0,0,1-.72,3.1,4.5,4.5,0,0,1-2,1.87A6.69,6.69,0,0,1,75.88,207.48Z" style="fill: rgb(38, 50, 56); stroke: rgb(38, 50, 56); stroke-linecap: round; stroke-linejoin: round; transform-origin: 75.6318px 194.895px;" id="elkho9nquuq8d" class="animable"></path><path d="M84.6,207.18V182.56h8.9v1.79H86.94v9.24h5.35v1.7H86.94v10.15h6.63v1.74Z" style="fill: rgb(38, 50, 56); stroke: rgb(38, 50, 56); stroke-linecap: round; stroke-linejoin: round; transform-origin: 89.085px 194.87px;" id="el4zw9zyi062j" class="animable"></path><path d="M96.73,207.18V182.56h5.56a7.5,7.5,0,0,1,3.63.74,4.27,4.27,0,0,1,1.9,2.16,8.75,8.75,0,0,1,.58,3.36,10.25,10.25,0,0,1-.31,2.58,4.93,4.93,0,0,1-1,2.07,3.52,3.52,0,0,1-2.07,1.12l3.77,12.59h-2.25l-3.61-12.1H99v12.1ZM99,193.38h3.13a4.6,4.6,0,0,0,2.4-.52,2.8,2.8,0,0,0,1.21-1.52,7.29,7.29,0,0,0,.37-2.52,5.94,5.94,0,0,0-.79-3.41c-.53-.75-1.57-1.12-3.13-1.12H99Z" style="fill: rgb(38, 50, 56); stroke: rgb(38, 50, 56); stroke-linecap: round; stroke-linejoin: round; transform-origin: 102.76px 194.866px;" id="el1ncy41z98q6" class="animable"></path><path d="M112.35,207.18V182.56h2.31v24.62Z" style="fill: rgb(38, 50, 56); stroke: rgb(38, 50, 56); stroke-linecap: round; stroke-linejoin: round; transform-origin: 113.505px 194.87px;" id="el8lai47qb0e7" class="animable"></path><path d="M123.38,207.18l-5.77-24.62h2.22L124.48,203l4.37-20.39H131l-5.56,24.62Z" style="fill: rgb(38, 50, 56); stroke: rgb(38, 50, 56); stroke-linecap: round; stroke-linejoin: round; transform-origin: 124.305px 194.895px;" id="elcfmj6zipiob" class="animable"></path><path d="M134,207.18V182.56h2.31v24.62Z" style="fill: rgb(38, 50, 56); stroke: rgb(38, 50, 56); stroke-linecap: round; stroke-linejoin: round; transform-origin: 135.155px 194.87px;" id="elq6kdy7sd6te" class="animable"></path><path d="M146.36,207.48a6.2,6.2,0,0,1-3.84-1,5.23,5.23,0,0,1-1.87-2.78,13.49,13.49,0,0,1-.52-3.88V190a13.86,13.86,0,0,1,.53-4,5.06,5.06,0,0,1,1.9-2.7,6.45,6.45,0,0,1,3.8-1,6.22,6.22,0,0,1,3.48.85,4.75,4.75,0,0,1,1.81,2.42,11.48,11.48,0,0,1,.55,3.72v1.49H150v-1.42a13,13,0,0,0-.26-2.77,3,3,0,0,0-1.05-1.79,3.65,3.65,0,0,0-2.34-.64,3.9,3.9,0,0,0-2.48.68,3.43,3.43,0,0,0-1.12,1.93,13.07,13.07,0,0,0-.29,2.89v10.49a11.34,11.34,0,0,0,.35,3A3.23,3.23,0,0,0,144,205a4,4,0,0,0,2.34.61,3.59,3.59,0,0,0,2.34-.67,3.24,3.24,0,0,0,1.05-1.87,13.65,13.65,0,0,0,.26-2.81v-1.61h2.19v1.46a13.2,13.2,0,0,1-.51,3.83,4.78,4.78,0,0,1-1.76,2.59A5.93,5.93,0,0,1,146.36,207.48Z" style="fill: rgb(38, 50, 56); stroke: rgb(38, 50, 56); stroke-linecap: round; stroke-linejoin: round; transform-origin: 146.165px 194.893px;" id="el4wv09urokfy" class="animable"></path><path d="M155.78,207.18V182.56h8.91v1.79h-6.57v9.24h5.35v1.7h-5.35v10.15h6.63v1.74Z" style="fill: rgb(38, 50, 56); stroke: rgb(38, 50, 56); stroke-linecap: round; stroke-linejoin: round; transform-origin: 160.265px 194.87px;" id="el935ez2h43q" class="animable"></path></g><g id="freepik--Character--inject-137" class="animable" style="transform-origin: 271.63px 293.213px;"><path d="M330.68,320.17h53.57s-29,71.31-23.53,103.16H306.43S316.56,341.89,330.68,320.17Z" style="fill: rgb(38, 50, 56); stroke: rgb(38, 50, 56); stroke-linecap: round; stroke-linejoin: round; transform-origin: 345.34px 371.75px;" id="el5hvv3wmmgow" class="animable"></path><path d="M284.33,217.81s.53,9.65,18.5,15.28,36.21,0,46.4,8,9.92,20.38,6.43,26.55-9.12,12.33,7.51,19.57,6.7,28.43-.27,36.21-19,11.53-32.45,8.85-29.23-35.13-46.39-52.3-19.26-48.84-8.31-57.92S284.33,217.81,284.33,217.81Z" style="fill: rgb(38, 50, 56); stroke: rgb(38, 50, 56); stroke-linecap: round; stroke-linejoin: round; transform-origin: 320.634px 274.826px;" id="elwbo6o9garje" class="animable"></path><path d="M281.57,183.1s7.4-3.23,9.3,3,2.46,23.35,2.46,23.35l-4-.95s.95-19.36-3.42-22.4-7.78,3.8-7.78,3.8Z" style="fill: rgb(166, 166, 166); stroke: rgb(38, 50, 56); stroke-linecap: round; stroke-linejoin: round; transform-origin: 285.73px 195.856px;" id="elre9zgwr6hl" class="animable"></path><path d="M198.5,391.38l25.28-13.52s-1.75-26.53-1.5-27.53,6.58-52.91,6.58-52.91l-17.34,51.41Z" style="fill: rgb(38, 50, 56); stroke: rgb(38, 50, 56); stroke-linecap: round; stroke-linejoin: round; transform-origin: 213.68px 344.4px;" id="el2j9luk1i8ol" class="animable"></path><path d="M310.26,270.76s25,13.62,28.36,15S340,304.51,340,315.86s-17,107.2-17,107.2H197.1s21.27-32.61,21.84-41.12-3.12-15.32-3.69-23.54,11.63-58.43,13.61-61,10.5-9.07,10.5-9.07L269.42,262l13.9-3.12Z" style="fill: rgb(91, 0, 0); stroke: rgb(38, 50, 56); stroke-linecap: round; stroke-linejoin: round; transform-origin: 268.84px 340.97px;" id="eloiy04gv3jd" class="animable"></path><line x1="226.82" y1="391.16" x2="222.62" y2="399.8" style="fill: none; stroke: rgb(38, 50, 56); stroke-linecap: round; stroke-linejoin: round; transform-origin: 224.72px 395.48px;" id="elw85q3uuwks" class="animable"></line><path d="M230.85,366.34s-6.24,4.25-3.12,6.52,4.54,7.09,4.54,7.09l-4,7.79" style="fill: none; stroke: rgb(38, 50, 56); stroke-linecap: round; stroke-linejoin: round; transform-origin: 229.563px 377.04px;" id="elufi6g1m45s8" class="animable"></path><path d="M260.24,387c1.69.13,3.47.23,5.33.28" style="fill: none; stroke: rgb(38, 50, 56); stroke-linecap: round; stroke-linejoin: round; transform-origin: 262.905px 387.14px;" id="elaa4u4kb07ki" class="animable"></path><path d="M233.39,380s6.79,4.54,21.58,6.48" style="fill: none; stroke: rgb(38, 50, 56); stroke-linecap: round; stroke-linejoin: round; transform-origin: 244.18px 383.24px;" id="el14kmtrlvu0n" class="animable"></path><path d="M216.47,198.66a6.77,6.77,0,0,0-3.79,6.45c0,4.94,4,14.61,4,14.61l2.28-.75s-4.17-10.06-3.6-13.67a5.82,5.82,0,0,1,4-4.55l-.76-2.47Z" style="fill: rgb(166, 166, 166); stroke: rgb(38, 50, 56); stroke-linecap: round; stroke-linejoin: round; transform-origin: 216.015px 209px;" id="elzdeybztf6x" class="animable"></path><path d="M226.24,224.07c1,5-.71,9.51-3.75,10.1s-6.28-3-7.24-8,.71-9.52,3.75-10.1S225.28,219.08,226.24,224.07Z" style="fill: rgb(255, 255, 255); stroke: rgb(38, 50, 56); stroke-linecap: round; stroke-linejoin: round; transform-origin: 220.753px 225.121px;" id="elivl5gpubans" class="animable"></path><path d="M235.47,222.46c1.89,6.38-.32,12.67-4.94,14s-9.9-2.69-11.8-9.07.32-12.67,4.94-14S233.58,216.08,235.47,222.46Z" style="fill: rgb(38, 50, 56); stroke: rgb(38, 50, 56); stroke-linecap: round; stroke-linejoin: round; transform-origin: 227.098px 224.925px;" id="elslmk6dwmntj" class="animable"></path><path d="M252.6,257.24l4.49,14.6-14.76,18.6-2.46,14.37s-2.45,41-1.05,47.32,1.4,8.06,1.4,8.06,30.5-35.4,45.57-57.13S304.36,268,304.36,268L289.64,260l-7-32.6Z" style="fill: rgb(255, 255, 255); stroke: rgb(38, 50, 56); stroke-linecap: round; stroke-linejoin: round; transform-origin: 271.374px 293.795px;" id="elxcbrvl2gnj" class="animable"></path><polygon points="275.88 243.11 257.09 271.84 251.85 254.93 275.88 243.11" style="fill: rgb(38, 50, 56); stroke: rgb(38, 50, 56); stroke-linecap: round; stroke-linejoin: round; transform-origin: 263.865px 257.475px;" id="elihoszh6ub5" class="animable"></polygon><path d="M240,304l-.14.81s-2.45,41-1.05,47.32,1.4,8.06,1.4,8.06,30.5-35.4,45.57-57.13c1.18-1.7,2.28-3.35,3.33-4.95C270.24,304.57,251,304.68,240,304Z" style="fill: rgb(255, 255, 255); stroke: rgb(38, 50, 56); stroke-linecap: round; stroke-linejoin: round; transform-origin: 263.744px 329.15px;" id="el0nxbnmkmnvr" class="animable"></path><path d="M232.61,167.73s-14.05,8.54-15.57,21.44,3.8,26.76,5.89,32.26,9.3,26.95,13.09,31.13,16.13,10.43,18.22,11.57,5.88.76,9.11-1.52,16.51-18.4,18.6-22.2,2.46-12.15,2.46-12.15-.38-16.7-1.13-27.51-.19-21.26-9.11-30.37S241.34,161.08,232.61,167.73Z" style="fill: rgb(255, 255, 255); stroke: rgb(38, 50, 56); stroke-linecap: round; stroke-linejoin: round; transform-origin: 250.59px 213.925px;" id="el6qnv1dxypcs" class="animable"></path><path d="M283.28,200.75c-.76-10.82-.19-21.26-9.11-30.37s-32.83-9.3-41.56-2.65c0,0-14.05,8.54-15.57,21.44-.88,7.5.55,15.3,2.3,21.62,3.23-2,14.13-8.68,26.36-17.25,14.61-10.25,19.36-26.19,19.36-26.19s1.7-.95,1.33,1.14-6.08,14.42-8.16,16.32l-2.09,1.89s1.71-.38,9.49,8.92,12.14,13.1,14.42,14.24a12.4,12.4,0,0,0,3.77.73C283.67,207.18,283.49,203.74,283.28,200.75Z" style="fill: rgb(38, 50, 56); stroke: rgb(38, 50, 56); stroke-linecap: round; stroke-linejoin: round; transform-origin: 250.296px 186.943px;" id="elsv2em33cm0b" class="animable"></path><path d="M259.91,220.87c.24,1.39-.27,2.65-1.15,2.8s-1.78-.85-2-2.24.27-2.65,1.15-2.81S259.66,219.48,259.91,220.87Z" style="fill: rgb(38, 50, 56); stroke: rgb(38, 50, 56); stroke-linecap: round; stroke-linejoin: round; transform-origin: 258.338px 221.144px;" id="elci1psjnll6c" class="animable"></path><path d="M238.65,223.9c.25,1.4-.26,2.65-1.14,2.81s-1.79-.85-2-2.25.26-2.64,1.14-2.8S238.41,222.51,238.65,223.9Z" style="fill: rgb(38, 50, 56); stroke: rgb(38, 50, 56); stroke-linecap: round; stroke-linejoin: round; transform-origin: 237.087px 224.185px;" id="el2pw4732t0j7" class="animable"></path><path d="M251.2,212.32s6.27-4.93,12-.95" style="fill: none; stroke: rgb(38, 50, 56); stroke-linecap: round; stroke-linejoin: round; transform-origin: 257.2px 211.069px;" id="elv324a04ot6q" class="animable"></path><path d="M238.49,215s-7.4-3.61-12.53,2.85" style="fill: none; stroke: rgb(38, 50, 56); stroke-linecap: round; stroke-linejoin: round; transform-origin: 232.225px 215.922px;" id="elrdte4v5dbck" class="animable"></path><path d="M239.82,215.17s5.12,2.47,5.5,7.21" style="fill: none; stroke: rgb(38, 50, 56); stroke-linecap: round; stroke-linejoin: round; transform-origin: 242.57px 218.775px;" id="eltl81y77dg7e" class="animable"></path><path d="M245.51,235.48s2.09,1.51,5.69.38" style="fill: none; stroke: rgb(38, 50, 56); stroke-linecap: round; stroke-linejoin: round; transform-origin: 248.355px 235.88px;" id="elnqfywp5k13" class="animable"></path><path d="M244,243.45a34.63,34.63,0,0,0,12.34-2.85c6.64-2.85,9.3-6.83,9.3-6.83" style="fill: none; stroke: rgb(38, 50, 56); stroke-linecap: round; stroke-linejoin: round; transform-origin: 254.82px 238.61px;" id="ela47jf8h2mjc" class="animable"></path><path d="M247.22,243.26a8.29,8.29,0,0,0,5.5,2.08c3.42,0,6.45-6.07,6.45-6.07S250.44,243.07,247.22,243.26Z" style="fill: none; stroke: rgb(38, 50, 56); stroke-linecap: round; stroke-linejoin: round; transform-origin: 253.195px 242.305px;" id="eldga3fa238fk" class="animable"></path><ellipse cx="286.69" cy="217.16" rx="8.73" ry="12.05" style="fill: rgb(38, 50, 56); stroke: rgb(38, 50, 56); stroke-linecap: round; stroke-linejoin: round; transform-origin: 286.69px 217.16px;" id="ell1gzbty4s1" class="animable"></ellipse><ellipse cx="290.39" cy="215.08" rx="5.6" ry="9.2" style="fill: rgb(255, 255, 255); stroke: rgb(38, 50, 56); stroke-linecap: round; stroke-linejoin: round; transform-origin: 290.39px 215.08px;" id="el0no85xnq3ws" class="animable"></ellipse><path d="M222.49,230s.06,19.72,5.18,21.43,19.17-1.71,19.17-1.71" style="fill: none; stroke: rgb(38, 50, 56); stroke-linecap: round; stroke-linejoin: round; stroke-width: 2px; transform-origin: 234.665px 240.954px;" id="elaut20xcx1ed" class="animable"></path><path d="M254.05,249.64c0,1.52-1.87,2.75-4.18,2.75s-4.17-1.23-4.17-2.75,1.87-2.75,4.17-2.75S254.05,248.12,254.05,249.64Z" style="fill: rgb(38, 50, 56); stroke: rgb(38, 50, 56); stroke-linecap: round; stroke-linejoin: round; transform-origin: 249.875px 249.64px;" id="el1cebsm0k58i" class="animable"></path><path d="M255.24,272.75s-6,10.49-10.21,41.69-1.42,37.43-1.42,37.43l-6,3.69s-12.47-1.42-8.22-30.91S236,290.33,236,290.33Z" style="fill: rgb(91, 0, 0); stroke: rgb(38, 50, 56); stroke-linecap: round; stroke-linejoin: round; transform-origin: 241.873px 314.155px;" id="elnvcpxcjc8zg" class="animable"></path><path d="M293.24,262s-13.61,32.33-27.79,52.47S232,363.5,232,363.5s10.21-4.82,31.77-21,43.39-53.32,45.66-57,5.67-12.19,5.67-12.19Z" style="fill: rgb(91, 0, 0); stroke: rgb(38, 50, 56); stroke-linecap: round; stroke-linejoin: round; transform-origin: 273.55px 312.75px;" id="elf3nzg8swt7r" class="animable"></path><path d="M175.43,405.64A70.61,70.61,0,0,1,165,410.86c-6.38,2.61-7,2.15-4.93,4.35s12.76-1.74,15.66-2.9,8.41-2.9,8.41-2.9,6.67,3.77,10.73,4.93,9-.58,9-.58.29-4.64-3.19-7.25-11-8.7-13.63-8.41S175.43,405.64,175.43,405.64Z" style="fill: rgb(255, 255, 255); stroke: rgb(38, 50, 56); stroke-linecap: round; stroke-linejoin: round; transform-origin: 181.443px 406.978px;" id="elygo6621akzp" class="animable"></path><path d="M173.69,398.68s-3.48-.87-5.8.87-4.93,7.25-5.22,8.7.29,2.32,2.61.29,6.38-4.93,6.38-4.93l3.48-1.16Z" style="fill: rgb(255, 255, 255); stroke: rgb(38, 50, 56); stroke-linecap: round; stroke-linejoin: round; transform-origin: 168.871px 404.099px;" id="elqf45i29i81s" class="animable"></path><path d="M182.68,396.07s-7-2.32-8.41-.29-6.38,13.63-4.93,14.5,3.48-.87,6.09-4.64,4.06-5.8,4.06-5.8l3.48-.58Z" style="fill: rgb(255, 255, 255); stroke: rgb(38, 50, 56); stroke-linecap: round; stroke-linejoin: round; transform-origin: 176.024px 402.724px;" id="el2vab1pde6b" class="animable"></path><path d="M195.11,398.67s-9.07-7.09-11.34-5.39-9.64,12.76-10.49,15,3.12,1.14,6.23-1.7,6.81-6,6.81-6l7.09,3.69Z" style="fill: rgb(255, 255, 255); stroke: rgb(38, 50, 56); stroke-linecap: round; stroke-linejoin: round; transform-origin: 184.137px 401.246px;" id="elylrs1slkgj9" class="animable"></path><path d="M227.73,404.06s-11.91-.57-16.73-2.27-14.47-5.39-17.3-5.11-13.62,10.78-15.89,13.05-2,2.88.23,3.16,7.71-3.44,10.27-5.43a28,28,0,0,1,5.1-3.12,63.7,63.7,0,0,0,6.81,8.23c2.83,2.55,9.64,4.53,12.19,4.25a40,40,0,0,0,4.82-.85l9.65-.28Z" style="fill: rgb(255, 255, 255); stroke: rgb(38, 50, 56); stroke-linecap: round; stroke-linejoin: round; transform-origin: 201.981px 406.756px;" id="elyusmsbvuff9" class="animable"></path><path d="M310.54,322.09s-10.49,12.19-9.92,16.45.85,8.5.85,8.5l-7.66,46.23s-6.52-3.12-6.52-.57v2.56L226,401.5l-.57,21.55,97.56.28s4.82-5.38,5.39-7.37,11.34-36.3,14.18-72.32,1.42-52.18,0-55-18.15-8.22-18.15-8.22" style="fill: rgb(91, 0, 0); stroke: rgb(38, 50, 56); stroke-linecap: round; stroke-linejoin: round; transform-origin: 284.815px 351.875px;" id="elnd7njzyvn9m" class="animable"></path><path d="M296.08,393s9.07,5.95,14.46,7.37" style="fill: rgb(255, 255, 255); stroke: rgb(38, 50, 56); stroke-linecap: round; stroke-linejoin: round; transform-origin: 303.31px 396.685px;" id="elxe18e7rwgw" class="animable"></path><path d="M211,335.47,218,313a48.44,48.44,0,0,0,7.4-9.29c3-5.07,3-14.58,2.53-16.27s6.13-9.29,8-12,2.95-7.61.42-11.2-3.8,2.33-5.49,5.07-7.61,5.49-7.61,5.49L217,279.88s-10.35,9.08-11,10.35-1.9,5.28-1.9,5.28l.85,12.25-5.49,21.33Z" style="fill: rgb(255, 255, 255); stroke: rgb(38, 50, 56); stroke-linecap: round; stroke-linejoin: round; transform-origin: 218.648px 299.293px;" id="elzka0k934n99" class="animable"></path><path d="M212.73,272.49s5.07-8,6.55-10.56,3.8-12.67,5.28-12,3,4,2.54,8.45-5.71,14.57-5.71,14.57Z" style="fill: none; stroke: rgb(38, 50, 56); stroke-linecap: round; stroke-linejoin: round; transform-origin: 219.957px 261.424px;" id="elphf1jlhiq6c" class="animable"></path><path d="M200.48,322.76l4.44-15L203,283.68l5.91-11.4,16.26-2.11s9.93,5.28,10.78,5.28,0,2.32-1.9,2.74-5.5-.63-5.5-.63l6.13,4s-.42,1.9-1.9,2.32a21.8,21.8,0,0,1-4.44.43s5.28,3.38,4,4a9.23,9.23,0,0,1-4,.84h-4l-3.17-.42-4.86,1.9s3.38,8.66,3.17,12.89-5.49,7-5.49,7" style="fill: rgb(255, 255, 255); stroke: rgb(38, 50, 56); stroke-linecap: round; stroke-linejoin: round; transform-origin: 218.38px 296.465px;" id="elii6wqzlnvuo" class="animable"></path><path d="M228.57,277.56s-3.38-2.75-5.28-2.75-13.51,2.11-13.51,2.11" style="fill: none; stroke: rgb(38, 50, 56); stroke-linecap: round; stroke-linejoin: round; transform-origin: 219.175px 276.185px;" id="ely6ba4zdu1z" class="animable"></path><path d="M228.36,284.32s-5.49-3-7.18-3-15,3.38-15,3.38" style="fill: none; stroke: rgb(38, 50, 56); stroke-linecap: round; stroke-linejoin: round; transform-origin: 217.27px 283.01px;" id="elaxykplg2735" class="animable"></path><path d="M200.75,318.05,217.9,329.6s-7.64,41-8.39,44.51-6.25,12.76-9,15.52-6,2.25-13.51.25-14-8-13.77-15.77S200.75,318.05,200.75,318.05Z" style="fill: rgb(91, 0, 0); stroke: rgb(38, 50, 56); stroke-linecap: round; stroke-linejoin: round; transform-origin: 195.562px 354.796px;" id="elsvs664e41l" class="animable"></path></g><g id="freepik--Device--inject-137" class="animable" style="transform-origin: 126.97px 350.395px;"><rect x="107.13" y="417.42" width="4.98" height="1.53" style="fill: rgb(255, 255, 255); stroke: rgb(38, 50, 56); stroke-linecap: round; stroke-linejoin: round; transform-origin: 109.62px 418.185px;" id="elv4hrxihcbw" class="animable"></rect><rect x="114.03" y="417.42" width="4.98" height="1.53" style="fill: rgb(255, 255, 255); stroke: rgb(38, 50, 56); stroke-linecap: round; stroke-linejoin: round; transform-origin: 116.52px 418.185px;" id="eleao17269i7l" class="animable"></rect><rect x="120.93" y="417.42" width="4.98" height="1.53" style="fill: rgb(255, 255, 255); stroke: rgb(38, 50, 56); stroke-linecap: round; stroke-linejoin: round; transform-origin: 123.42px 418.185px;" id="elq5oe2ujl7f" class="animable"></rect><rect x="127.84" y="417.42" width="4.98" height="1.53" style="fill: rgb(255, 255, 255); stroke: rgb(38, 50, 56); stroke-linecap: round; stroke-linejoin: round; transform-origin: 130.33px 418.185px;" id="el8xgs2l1313r" class="animable"></rect><rect x="134.74" y="417.42" width="4.98" height="1.53" style="fill: rgb(255, 255, 255); stroke: rgb(38, 50, 56); stroke-linecap: round; stroke-linejoin: round; transform-origin: 137.23px 418.185px;" id="el764ygxvc36r" class="animable"></rect><rect x="141.64" y="417.42" width="4.98" height="1.53" style="fill: rgb(255, 255, 255); stroke: rgb(38, 50, 56); stroke-linecap: round; stroke-linejoin: round; transform-origin: 144.13px 418.185px;" id="eliq1vsdg94g" class="animable"></rect><rect x="148.54" y="417.42" width="4.98" height="1.53" style="fill: rgb(255, 255, 255); stroke: rgb(38, 50, 56); stroke-linecap: round; stroke-linejoin: round; transform-origin: 151.03px 418.185px;" id="el6lybjj6mhhl" class="animable"></rect><rect x="155.44" y="417.42" width="4.98" height="1.53" style="fill: rgb(255, 255, 255); stroke: rgb(38, 50, 56); stroke-linecap: round; stroke-linejoin: round; transform-origin: 157.93px 418.185px;" id="el590lei4pn9" class="animable"></rect><rect x="162.34" y="417.42" width="4.98" height="1.53" style="fill: rgb(255, 255, 255); stroke: rgb(38, 50, 56); stroke-linecap: round; stroke-linejoin: round; transform-origin: 164.83px 418.185px;" id="elr7w1hq31rn" class="animable"></rect><rect x="169.24" y="417.42" width="4.98" height="1.53" style="fill: rgb(255, 255, 255); stroke: rgb(38, 50, 56); stroke-linecap: round; stroke-linejoin: round; transform-origin: 171.73px 418.185px;" id="elrqsbdpnck1" class="animable"></rect><rect x="176.15" y="417.42" width="4.98" height="1.53" style="fill: rgb(255, 255, 255); stroke: rgb(38, 50, 56); stroke-linecap: round; stroke-linejoin: round; transform-origin: 178.64px 418.185px;" id="ellqyf6y5yvfs" class="animable"></rect><rect x="183.05" y="417.42" width="4.98" height="1.53" style="fill: rgb(255, 255, 255); stroke: rgb(38, 50, 56); stroke-linecap: round; stroke-linejoin: round; transform-origin: 185.54px 418.185px;" id="el5s8co659oul" class="animable"></rect><rect x="189.95" y="417.42" width="4.98" height="1.53" style="fill: rgb(255, 255, 255); stroke: rgb(38, 50, 56); stroke-linecap: round; stroke-linejoin: round; transform-origin: 192.44px 418.185px;" id="elk9pzhdy1de" class="animable"></rect><rect x="196.85" y="417.42" width="4.98" height="1.53" style="fill: rgb(255, 255, 255); stroke: rgb(38, 50, 56); stroke-linecap: round; stroke-linejoin: round; transform-origin: 199.34px 418.185px;" id="el8v3dqefeay5" class="animable"></rect><rect x="203.75" y="417.42" width="4.98" height="1.53" style="fill: rgb(255, 255, 255); stroke: rgb(38, 50, 56); stroke-linecap: round; stroke-linejoin: round; transform-origin: 206.24px 418.185px;" id="elcjb2a42v61s" class="animable"></rect><rect x="210.65" y="417.42" width="4.98" height="1.53" style="fill: rgb(255, 255, 255); stroke: rgb(38, 50, 56); stroke-linecap: round; stroke-linejoin: round; transform-origin: 213.14px 418.185px;" id="elz0hlm711qtc" class="animable"></rect><rect x="104.27" y="418.63" width="123.39" height="4.34" style="fill: rgb(255, 255, 255); stroke: rgb(38, 50, 56); stroke-linecap: round; stroke-linejoin: round; transform-origin: 165.965px 420.8px;" id="ela6hfhdvfr19" class="animable"></rect><rect x="180.35" y="418.63" width="47.3" height="4.34" style="fill: rgb(255, 255, 255); stroke: rgb(38, 50, 56); stroke-linecap: round; stroke-linejoin: round; transform-origin: 204px 420.8px;" id="el6q9suzfvbym" class="animable"></rect><polygon points="142.77 380.62 45.76 380.62 26.28 277.46 123.29 277.46 142.77 380.62" style="fill: rgb(38, 50, 56); stroke: rgb(255, 255, 255); stroke-linecap: round; stroke-linejoin: round; transform-origin: 84.525px 329.04px;" id="eltqryq4gbw2e" class="animable"></polygon><polygon points="139.82 378.01 45.71 378.01 27.22 280.07 121.32 280.07 139.82 378.01" style="fill: rgb(38, 50, 56); stroke: rgb(255, 255, 255); stroke-linecap: round; stroke-linejoin: round; transform-origin: 83.52px 329.04px;" id="el3xakwwzcqj3" class="animable"></polygon><polygon points="121.7 370.21 51.73 370.21 37.98 297.4 107.95 297.4 121.7 370.21" style="fill: rgb(38, 50, 56); stroke: rgb(255, 255, 255); stroke-linecap: round; stroke-linejoin: round; transform-origin: 79.84px 333.805px;" id="el1tr8gzfjq2a" class="animable"></polygon><line x1="37.98" y1="297.4" x2="27.22" y2="280.07" style="fill: none; stroke: rgb(38, 50, 56); stroke-linecap: round; stroke-linejoin: round; transform-origin: 32.6px 288.735px;" id="elyg0aj6xvnkc" class="animable"></line><line x1="107.95" y1="297.4" x2="121.32" y2="280.07" style="fill: rgb(38, 50, 56); stroke: rgb(255, 255, 255); stroke-linecap: round; stroke-linejoin: round; transform-origin: 114.635px 288.735px;" id="elbt5v7gft8ch" class="animable"></line><line x1="121.7" y1="370.21" x2="139.82" y2="378.01" style="fill: rgb(38, 50, 56); stroke: rgb(255, 255, 255); stroke-linecap: round; stroke-linejoin: round; transform-origin: 130.76px 374.11px;" id="el1c8muli9x7g" class="animable"></line><line x1="51.73" y1="370.21" x2="45.71" y2="378.01" style="fill: rgb(255, 255, 255); stroke: rgb(38, 50, 56); stroke-linecap: round; stroke-linejoin: round; transform-origin: 48.72px 374.11px;" id="elkv4i3o23ud" class="animable"></line><polygon points="80.18 348.4 64.25 348.4 74.39 339.36 90.32 339.36 80.18 348.4" style="fill: rgb(38, 50, 56); stroke: rgb(255, 255, 255); stroke-linecap: round; stroke-linejoin: round; transform-origin: 77.285px 343.88px;" id="elxerdea345oq" class="animable"></polygon><rect x="74.75" y="417.54" width="58.28" height="5.79" style="fill: rgb(38, 50, 56); stroke: rgb(255, 255, 255); stroke-linecap: round; stroke-linejoin: round; transform-origin: 103.89px 420.435px;" id="elt5vlku6ewx" class="animable"></rect><polygon points="99.73 423.33 83.8 423.33 64.25 401.12 80.18 401.12 99.73 423.33" style="fill: rgb(38, 50, 56); stroke: rgb(255, 255, 255); stroke-linecap: round; stroke-linejoin: round; transform-origin: 81.99px 412.225px;" id="el7q3qq7ojonl" class="animable"></polygon><rect x="64.25" y="348.77" width="15.93" height="52.12" style="fill: rgb(38, 50, 56); stroke: rgb(255, 255, 255); stroke-linecap: round; stroke-linejoin: round; transform-origin: 72.215px 374.83px;" id="elrbveefbhm5" class="animable"></rect></g><g id="freepik--Table--inject-137" class="animable" style="transform-origin: 242.165px 418.375px;"><path d="M313.41,413.42a23.67,23.67,0,0,0,9.93,9.64" style="fill: rgb(255, 255, 255); stroke: rgb(38, 50, 56); stroke-linecap: round; stroke-linejoin: round; transform-origin: 318.375px 418.24px;" id="elbjp2d5d8k3e" class="animable"></path><line x1="14.06" y1="423.33" x2="470.27" y2="423.33" style="fill: none; stroke: rgb(38, 50, 56); stroke-linecap: round; stroke-linejoin: round; transform-origin: 242.165px 423.33px;" id="elvwifi2ouz5d" class="animable"></line></g><defs>     <filter id="active" height="200%">         <feMorphology in="SourceAlpha" result="DILATED" operator="dilate" radius="2"></feMorphology>                <feFlood flood-color="#32DFEC" flood-opacity="1" result="PINK"></feFlood>        <feComposite in="PINK" in2="DILATED" operator="in" result="OUTLINE"></feComposite>        <feMerge>            <feMergeNode in="OUTLINE"></feMergeNode>            <feMergeNode in="SourceGraphic"></feMergeNode>        </feMerge>    </filter>    <filter id="hover" height="200%">        <feMorphology in="SourceAlpha" result="DILATED" operator="dilate" radius="2"></feMorphology>                <feFlood flood-color="#ff0000" flood-opacity="0.5" result="PINK"></feFlood>        <feComposite in="PINK" in2="DILATED" operator="in" result="OUTLINE"></feComposite>        <feMerge>            <feMergeNode in="OUTLINE"></feMergeNode>            <feMergeNode in="SourceGraphic"></feMergeNode>        </feMerge>            <feColorMatrix type="matrix" values="0   0   0   0   0                0   1   0   0   0                0   0   0   0   0                0   0   0   1   0 "></feColorMatrix>    </filter></defs></svg>